<svg width="24" height="24" viewBox="0 0 24 24" fill="none" xmlns="http://www.w3.org/2000/svg">
<mask id="mask0_512_46" style="mask-type:alpha" maskUnits="userSpaceOnUse" x="0" y="0" width="24" height="24">
<rect x="0.416992" width="22.8328" height="24" fill="#D9D9D9"/>
</mask>
<g mask="url(#mask0_512_46)">
<path d="M0.416992 18V16.425C0.416992 15.7083 0.765827 15.125 1.4635 14.675C2.16117 14.225 3.08082 14 4.22246 14C4.42859 14 4.62679 14.0042 4.81707 14.0125C5.00734 14.0208 5.18969 14.0417 5.36411 14.075C5.14212 14.425 4.97563 14.7917 4.86464 15.175C4.75364 15.5583 4.69815 15.9583 4.69815 16.375V18H0.416992ZM6.1252 18V16.375C6.1252 15.8417 6.26394 15.3542 6.54142 14.9125C6.8189 14.4708 7.21134 14.0833 7.71874 13.75C8.22614 13.4167 8.83263 13.1667 9.53823 13C10.2438 12.8333 11.0089 12.75 11.8334 12.75C12.6738 12.75 13.4468 12.8333 14.1524 13C14.858 13.1667 15.4645 13.4167 15.9719 13.75C16.4793 14.0833 16.8677 14.4708 17.1373 14.9125C17.4068 15.3542 17.5416 15.8417 17.5416 16.375V18H6.1252ZM18.9687 18V16.375C18.9687 15.9417 18.9171 15.5333 18.8141 15.15C18.711 14.7667 18.5564 14.4083 18.3503 14.075C18.5247 14.0417 18.7031 14.0208 18.8854 14.0125C19.0678 14.0042 19.2541 14 19.4443 14C20.586 14 21.5056 14.2208 22.2033 14.6625C22.901 15.1042 23.2498 15.6917 23.2498 16.425V18H18.9687ZM8.14686 16H15.5437C15.3852 15.6667 14.9452 15.375 14.2237 15.125C13.5023 14.875 12.7055 14.75 11.8334 14.75C10.9613 14.75 10.1645 14.875 9.44309 15.125C8.72164 15.375 8.28956 15.6667 8.14686 16ZM4.22246 13C3.69921 13 3.25128 12.8042 2.87866 12.4125C2.50604 12.0208 2.31973 11.55 2.31973 11C2.31973 10.4333 2.50604 9.95833 2.87866 9.575C3.25128 9.19167 3.69921 9 4.22246 9C4.76157 9 5.21347 9.19167 5.57816 9.575C5.94285 9.95833 6.1252 10.4333 6.1252 11C6.1252 11.55 5.94285 12.0208 5.57816 12.4125C5.21347 12.8042 4.76157 13 4.22246 13ZM19.4443 13C18.9211 13 18.4732 12.8042 18.1005 12.4125C17.7279 12.0208 17.5416 11.55 17.5416 11C17.5416 10.4333 17.7279 9.95833 18.1005 9.575C18.4732 9.19167 18.9211 9 19.4443 9C19.9835 9 20.4354 9.19167 20.8 9.575C21.1647 9.95833 21.3471 10.4333 21.3471 11C21.3471 11.55 21.1647 12.0208 20.8 12.4125C20.4354 12.8042 19.9835 13 19.4443 13ZM11.8334 12C11.0406 12 10.3667 11.7083 9.81175 11.125C9.25678 10.5417 8.9793 9.83333 8.9793 9C8.9793 8.15 9.25678 7.4375 9.81175 6.8625C10.3667 6.2875 11.0406 6 11.8334 6C12.6421 6 13.3199 6.2875 13.867 6.8625C14.414 7.4375 14.6875 8.15 14.6875 9C14.6875 9.83333 14.414 10.5417 13.867 11.125C13.3199 11.7083 12.6421 12 11.8334 12ZM11.8334 10C12.103 10 12.3289 9.90417 12.5113 9.7125C12.6936 9.52083 12.7848 9.28333 12.7848 9C12.7848 8.71667 12.6936 8.47917 12.5113 8.2875C12.3289 8.09583 12.103 8 11.8334 8C11.5639 8 11.3379 8.09583 11.1556 8.2875C10.9732 8.47917 10.882 8.71667 10.882 9C10.882 9.28333 10.9732 9.52083 11.1556 9.7125C11.3379 9.90417 11.5639 10 11.8334 10Z" fill="white"/>
</g>
</svg>
