<svg width="33" height="33" viewBox="0 0 33 33" fill="none" xmlns="http://www.w3.org/2000/svg">
<mask id="mask0_670_621" style="mask-type:alpha" maskUnits="userSpaceOnUse" x="0" y="0" width="33" height="33">
<rect x="0.567627" y="0.271973" width="32" height="32" fill="#D9D9D9"/>
</mask>
<g mask="url(#mask0_670_621)">
<path d="M16.5677 16.2719C17.301 16.2719 17.9288 16.0108 18.451 15.4886C18.9732 14.9664 19.2343 14.3386 19.2343 13.6053C19.2343 12.8719 18.9732 12.2442 18.451 11.7219C17.9288 11.1997 17.301 10.9386 16.5677 10.9386C15.8343 10.9386 15.2066 11.1997 14.6843 11.7219C14.1621 12.2442 13.901 12.8719 13.901 13.6053C13.901 14.3386 14.1621 14.9664 14.6843 15.4886C15.2066 16.0108 15.8343 16.2719 16.5677 16.2719ZM16.5677 26.0719C19.2788 23.583 21.2899 21.3219 22.601 19.2886C23.9121 17.2553 24.5677 15.4497 24.5677 13.8719C24.5677 11.4497 23.7954 9.46638 22.251 7.92193C20.7066 6.37749 18.8121 5.60527 16.5677 5.60527C14.3232 5.60527 12.4288 6.37749 10.8843 7.92193C9.33989 9.46638 8.56767 11.4497 8.56767 13.8719C8.56767 15.4497 9.22322 17.2553 10.5343 19.2886C11.8454 21.3219 13.8566 23.583 16.5677 26.0719ZM16.5677 29.6053C12.9899 26.5608 10.3177 23.733 8.551 21.1219C6.78433 18.5108 5.901 16.0942 5.901 13.8719C5.901 10.5386 6.97322 7.88304 9.11767 5.90527C11.2621 3.92749 13.7454 2.9386 16.5677 2.9386C19.3899 2.9386 21.8732 3.92749 24.0177 5.90527C26.1621 7.88304 27.2343 10.5386 27.2343 13.8719C27.2343 16.0942 26.351 18.5108 24.5843 21.1219C22.8177 23.733 20.1454 26.5608 16.5677 29.6053Z" fill="#7D7D7D"/>
</g>
</svg>
