<svg width="25" height="24" viewBox="0 0 25 24" fill="none" xmlns="http://www.w3.org/2000/svg">
<mask id="mask0_512_41" style="mask-type:alpha" maskUnits="userSpaceOnUse" x="0" y="0" width="25" height="24">
<rect x="0.5" width="24" height="24" fill="#D9D9D9"/>
</mask>
<g mask="url(#mask0_512_41)">
<path d="M10.5 22V15H8.5V9C8.5 8.45 8.69583 7.97917 9.0875 7.5875C9.47917 7.19583 9.95 7 10.5 7H14.5C15.05 7 15.5208 7.19583 15.9125 7.5875C16.3042 7.97917 16.5 8.45 16.5 9V15H14.5V22H10.5ZM12.5 6C11.95 6 11.4792 5.80417 11.0875 5.4125C10.6958 5.02083 10.5 4.55 10.5 4C10.5 3.45 10.6958 2.97917 11.0875 2.5875C11.4792 2.19583 11.95 2 12.5 2C13.05 2 13.5208 2.19583 13.9125 2.5875C14.3042 2.97917 14.5 3.45 14.5 4C14.5 4.55 14.3042 5.02083 13.9125 5.4125C13.5208 5.80417 13.05 6 12.5 6Z" fill="white"/>
</g>
</svg>
