<svg width="32" height="32" viewBox="0 0 32 32" fill="none" xmlns="http://www.w3.org/2000/svg">
<path d="M27.667 10H8.66699C8.12033 10 7.66699 9.54667 7.66699 9C7.66699 8.45333 8.12033 8 8.66699 8L27.667 8C28.2137 8 28.667 8.45333 28.667 9C28.667 9.54667 28.2137 10 27.667 10Z" fill="white"/>
<path d="M27.6677 16.6666H15.041C14.4943 16.6666 14.041 16.2133 14.041 15.6666C14.041 15.12 14.4943 14.6666 15.041 14.6666H27.6677C28.2143 14.6666 28.6677 15.12 28.6677 15.6666C28.6677 16.2133 28.2143 16.6666 27.6677 16.6666Z" fill="white"/>
<path d="M27.667 23.3333H8.66699C8.12033 23.3333 7.66699 22.88 7.66699 22.3333C7.66699 21.7866 8.12033 21.3333 8.66699 21.3333L27.667 21.3333C28.2137 21.3333 28.667 21.7866 28.667 22.3333C28.667 22.88 28.2137 23.3333 27.667 23.3333Z" fill="white"/>
</svg>
