<svg width="24" height="24" viewBox="0 0 24 24" fill="none" xmlns="http://www.w3.org/2000/svg">
<mask id="mask0_571_683" style="mask-type:alpha" maskUnits="userSpaceOnUse" x="0" y="0" width="24" height="24">
<rect width="24" height="24" fill="#D9D9D9"/>
</mask>
<g mask="url(#mask0_571_683)">
<path d="M4.20549 20.975C3.85549 21.0583 3.55132 20.9708 3.29299 20.7125C3.03465 20.4542 2.94715 20.15 3.03049 19.8L4.03049 15.025L8.98049 19.975L4.20549 20.975ZM8.98049 19.975L4.03049 15.025L15.4805 3.575C15.8638 3.19167 16.3388 3 16.9055 3C17.4722 3 17.9472 3.19167 18.3305 3.575L20.4305 5.675C20.8138 6.05833 21.0055 6.53333 21.0055 7.1C21.0055 7.66667 20.8138 8.14167 20.4305 8.525L8.98049 19.975ZM16.9055 4.975L6.55549 15.325L8.68049 17.45L19.0305 7.1L16.9055 4.975Z" fill="white"/>
</g>
</svg>
