<svg width="24" height="25" viewBox="0 0 24 25" fill="none" xmlns="http://www.w3.org/2000/svg">
<mask id="mask0_571_623" style="mask-type:alpha" maskUnits="userSpaceOnUse" x="0" y="0" width="24" height="25">
<rect x="0.673584" y="0.5" width="23.3263" height="24" fill="#D9D9D9"/>
</mask>
<g mask="url(#mask0_571_623)">
<path d="M9.80994 17L12.337 14.4L14.864 17L16.2247 15.6L13.6977 13L16.2247 10.4L14.864 9L12.337 11.6L9.80994 9L8.44924 10.4L10.9763 13L8.44924 15.6L9.80994 17ZM7.47731 21.5C6.94275 21.5 6.48513 21.3042 6.10446 20.9125C5.72379 20.5208 5.53345 20.05 5.53345 19.5V6.5H4.56152V4.5H9.42117V3.5H15.2528V4.5H20.1124V6.5H19.1405V19.5C19.1405 20.05 18.9501 20.5208 18.5695 20.9125C18.1888 21.3042 17.7312 21.5 17.1966 21.5H7.47731ZM17.1966 6.5H7.47731V19.5H17.1966V6.5Z" fill="#ED2E3C"/>
</g>
</svg>
